<?xml version="1.0" encoding="UTF-8" standalone="no"?>
<!DOCTYPE svg PUBLIC "-//W3C//DTD SVG 1.1//EN" "http://www.w3.org/Graphics/SVG/1.1/DTD/svg11.dtd">
<svg width="100%" height="100%" viewBox="0 0 10 12" version="1.1" xmlns="http://www.w3.org/2000/svg" xmlns:xlink="http://www.w3.org/1999/xlink" xml:space="preserve" xmlns:serif="http://www.serif.com/" style="fill-rule:evenodd;clip-rule:evenodd;stroke-linecap:round;stroke-linejoin:round;stroke-miterlimit:1.5;">
    <g transform="matrix(1,0,0,1,-759,-368)">
        <g>
            <g>
                <g>
                    <path d="M759.405,378.002L759.405,369.467C759.405,369.278 759.48,369.097 759.613,368.963C759.747,368.83 759.928,368.755 760.117,368.755L761.216,368.755L761.216,368.758C762.432,368.755 764.005,368.755 765.094,368.755C765.213,368.755 765.315,368.84 765.337,368.958C765.373,369.158 765.474,369.343 765.625,369.489C765.776,369.635 765.968,369.734 766.176,369.773C766.292,369.793 766.377,369.894 766.377,370.012C766.382,371.924 766.382,375.544 766.382,377.456C766.382,377.576 766.295,377.679 766.176,377.699C765.968,377.734 765.776,377.833 765.625,377.979C765.474,378.125 765.373,378.31 765.332,378.509C765.311,378.624 765.211,378.708 765.094,378.708C764.005,378.713 762.432,378.713 761.216,378.713L760.117,378.713C759.928,378.713 759.747,378.638 759.613,378.505C759.48,378.371 759.405,378.19 759.405,378.002Z" style="fill:url(#_Linear1);"/>
                    <path d="M766.382,368.755L766.382,378.713" style="fill:none;stroke:white;stroke-width:0.36px;stroke-dasharray:0.83,0.8,0,0,0,0;stroke-dashoffset:0.36;"/>
                </g>
                <path d="M764.577,373.737C764.602,373.752 764.618,373.78 764.618,373.809C764.618,373.839 764.602,373.866 764.577,373.882C764.1,374.169 762.348,375.225 761.858,375.521C761.831,375.536 761.799,375.537 761.772,375.522C761.746,375.507 761.729,375.479 761.729,375.448L761.729,372.171C761.729,372.14 761.746,372.112 761.772,372.097C761.799,372.082 761.831,372.082 761.858,372.098C762.348,372.394 764.1,373.45 764.577,373.737Z" style="fill:white;"/>
            </g>
            <g>
                <path d="M768.633,379.425L768.024,379.425C767.925,379.425 767.841,379.352 767.827,379.254C767.794,379.046 767.696,378.853 767.545,378.702C767.394,378.551 767.201,378.452 766.993,378.417C766.897,378.403 766.825,378.32 766.825,378.223C766.822,377.175 766.822,371.865 766.822,370.817C766.822,370.718 766.895,370.634 766.993,370.62C767.201,370.587 767.394,370.489 767.545,370.338C767.696,370.187 767.794,369.994 767.83,369.786C767.844,369.69 767.927,369.619 768.024,369.619C768.257,369.615 768.633,369.615 768.633,369.615L768.633,379.425Z" style="fill:url(#_Linear2);"/>
                <path d="M766.822,379.425L766.822,369.615" style="fill:none;stroke:white;stroke-width:0.29px;stroke-dasharray:0.67,0.65,0,0,0,0;stroke-dashoffset:0.29;"/>
            </g>
        </g>
    </g>
    <defs>
        <linearGradient id="_Linear1" x1="0" y1="0" x2="1" y2="0" gradientUnits="userSpaceOnUse" gradientTransform="matrix(13.2732,0,0,13.2732,759.405,382.709)"><stop offset="0" style="stop-color:rgb(255,84,175);stop-opacity:1"/><stop offset="0.5" style="stop-color:rgb(255,90,85);stop-opacity:1"/><stop offset="1" style="stop-color:rgb(255,154,11);stop-opacity:1"/></linearGradient>
        <linearGradient id="_Linear2" x1="0" y1="0" x2="1" y2="0" gradientUnits="userSpaceOnUse" gradientTransform="matrix(-12.666,1.55114e-15,-1.55114e-15,-12.666,773.48,365.678)"><stop offset="0" style="stop-color:rgb(255,84,175);stop-opacity:1"/><stop offset="0.5" style="stop-color:rgb(255,90,85);stop-opacity:1"/><stop offset="1" style="stop-color:rgb(255,154,11);stop-opacity:1"/></linearGradient>
    </defs>
</svg>
