<?xml version="1.0" encoding="UTF-8" standalone="no"?><!DOCTYPE svg PUBLIC "-//W3C//DTD SVG 1.1//EN" "http://www.w3.org/Graphics/SVG/1.1/DTD/svg11.dtd"><svg width="100%" height="100%" viewBox="0 0 748 140" version="1.1" xmlns="http://www.w3.org/2000/svg" xmlns:xlink="http://www.w3.org/1999/xlink" xml:space="preserve" xmlns:serif="http://www.serif.com/" style="fill-rule:evenodd;clip-rule:evenodd;stroke-linecap:round;stroke-linejoin:round;stroke-miterlimit:1.5;"><g><g><path d="M747.222,104.167c0,-19.432 -15.776,-35.208 -35.208,-35.208l-675.747,-0c-19.432,-0 -35.208,15.776 -35.208,35.208c-0,19.431 15.776,35.208 35.208,35.208l675.747,-0c19.432,-0 35.208,-15.777 35.208,-35.208Z" style="fill:#f2f2f2;"/><g transform="matrix(0.694444,0,0,0.694444,-155.021,-33.3364)"><text x="296.216px" y="212.483px" style="font-family:'AppleColorEmoji', 'Apple Color Emoji';font-size:36px;fill:#7c7c7c;">🔍</text><g transform="matrix(36,0,0,36,774.476,212.483)"></g><text x="342.476px" y="212.483px" style="font-family:'TsukuARdGothic-Bold', 'Tsukushi A Round Gothic', serif;font-weight:700;font-size:36px;fill:#7c7c7c;">イベント、チケットを探す</text></g><g><path d="M705.532,121.55l-1.427,0c-4.891,0 -8.862,-3.97 -8.862,-8.861l0,-1.427m34.768,-0l-0,1.427c-0,4.891 -3.971,8.861 -8.862,8.861l-1.427,0m-0,-34.767l1.427,0c4.891,0 8.862,3.971 8.862,8.862l-0,1.427m-34.768,-0l0,-1.427c0,-4.891 3.971,-8.862 8.862,-8.862l1.427,0" style="fill:none;stroke:#7c7c7c;stroke-width:2.08px;"/><g><rect x="703.134" y="94.174" width="7.689" height="7.689" style="fill:none;stroke:#7c7c7c;stroke-width:1.39px;stroke-linejoin:miter;"/><rect x="704.515" y="95.555" width="4.927" height="4.927" style="fill:#7c7c7c;"/></g><g><rect x="714.431" y="94.174" width="7.689" height="7.689" style="fill:none;stroke:#7c7c7c;stroke-width:1.39px;stroke-linejoin:miter;"/><rect x="715.812" y="95.555" width="4.927" height="4.927" style="fill:#7c7c7c;"/></g><g><path d="M710.823,113.16l-0,-7.689l-7.689,0l-0,7.689l7.689,0Z" style="fill:none;stroke:#7c7c7c;stroke-width:1.39px;stroke-linejoin:miter;"/><path d="M709.442,111.78l-0,-4.928l-4.927,0l-0,4.928l4.927,-0Z" style="fill:#7c7c7c;"/></g><rect x="714.431" y="105.471" width="7.689" height="7.689" style="fill:none;stroke:#7c7c7c;stroke-width:1.39px;stroke-linejoin:miter;"/></g><path d="M677.917,79.439l-0,52.065" style="fill:none;stroke:#7c7c7c;stroke-width:0.69px;stroke-linejoin:miter;"/></g><g><path d="M747.222,26.458c0,-13.932 -11.311,-25.243 -25.243,-25.243l-695.313,0c-13.932,0 -25.243,11.311 -25.243,25.243c-0,13.932 11.311,25.243 25.243,25.243l695.313,0c13.932,0 25.243,-11.311 25.243,-25.243Z" style="fill:url(#_Linear1);"/><g><circle cx="164.786" cy="27.365" r="14.537" style="fill:#fff;"/><path d="M164.786,17.253l-0,12.838" style="fill:none;stroke:#757575;stroke-width:4.17px;"/><path d="M164.786,36.07l-0,0.529" style="fill:none;stroke:#757575;stroke-width:4.17px;"/></g><g transform="matrix(22.2222,0,0,22.2222,599.863,35.587)"></g><text x="199.863px" y="35.587px" style="font-family:'TsukuARdGothic-Bold', 'Tsukushi A Round Gothic', serif;font-weight:700;font-size:22.222px;fill:#fff;">開催の近いチケットが３件あります！→</text></g></g><defs><linearGradient id="_Linear1" x1="0" y1="0" x2="1" y2="0" gradientUnits="userSpaceOnUse" gradientTransform="matrix(745.799,0,0,745.799,1.42287,26.4583)"><stop offset="0" style="stop-color:#ff54af;stop-opacity:1"/><stop offset="0.5" style="stop-color:#ff5a55;stop-opacity:1"/><stop offset="1" style="stop-color:#ff9a0b;stop-opacity:1"/></linearGradient></defs></svg>