<?xml version="1.0" encoding="UTF-8" standalone="no"?><!DOCTYPE svg PUBLIC "-//W3C//DTD SVG 1.1//EN" "http://www.w3.org/Graphics/SVG/1.1/DTD/svg11.dtd"><svg width="100%" height="100%" viewBox="0 0 748 53" version="1.1" xmlns="http://www.w3.org/2000/svg" xmlns:xlink="http://www.w3.org/1999/xlink" xml:space="preserve" xmlns:serif="http://www.serif.com/" style="fill-rule:evenodd;clip-rule:evenodd;stroke-linecap:round;stroke-linejoin:round;stroke-miterlimit:1.5;"><g><path d="M747.7,25.255c-0,-13.932 -11.311,-25.243 -25.244,-25.243l-695.313,-0c-13.932,-0 -25.243,11.311 -25.243,25.243c0,13.932 11.311,25.243 25.243,25.243l695.313,-0c13.933,-0 25.244,-11.311 25.244,-25.243Z" style="fill:url(#_Linear1);"/><g><circle cx="165.263" cy="26.161" r="14.537" style="fill:#fff;"/><path d="M165.263,16.049l0,12.838" style="fill:none;stroke:#757575;stroke-width:4.17px;"/><path d="M165.263,34.866l0,0.529" style="fill:none;stroke:#757575;stroke-width:4.17px;"/></g><path d="M218.407,23.984l-0,0.911c-0,1.4 0.022,3.089 0.022,4.689c-0,1.044 -0.022,2.066 -0.045,2.955c-0.022,1.089 -0.533,1.356 -1.266,1.356c-0.356,-0 -0.756,-0.067 -1.2,-0.134c-0.067,0 -0.111,-0.022 -0.178,-0.022c-0.578,0 -0.911,0.489 -0.911,0.978c-0,1.022 0.889,1.222 2.4,1.222c2.511,0 3.289,-1.4 3.289,-3c-0,-0.778 -0.023,-1.711 -0.023,-2.778c0,-2.844 -0.044,-6.489 -0.044,-9.822l-0,-1.644c-0,-0.978 -0.667,-1.823 -2.333,-1.911c-0.378,-0.023 -1,-0.023 -1.667,-0.023c-0.911,0 -1.867,0 -2.289,0.023c-1.133,0.044 -1.955,0.733 -2,1.711c-0.022,0.755 -0.044,1.533 -0.044,2.289c-0,0.466 -0,0.933 0.022,1.355c0.067,1.867 1.822,1.889 4.622,1.889c0.645,-0 1.245,-0.022 1.645,-0.044Zm-2.312,6.311c0.623,-0 0.912,-0.423 0.912,-0.845c-0,-0.422 -0.289,-0.844 -0.912,-0.844l-1.777,-0l-0,-2l1.133,-0c0.622,-0 0.911,-0.422 0.911,-0.845c0,-0.422 -0.289,-0.844 -0.911,-0.844l-8.311,-0c-0.622,-0 -0.978,0.444 -0.978,0.867c0,0.422 0.311,0.822 0.978,0.822l1.355,-0c0.023,0.511 0.045,1.066 0.045,1.644l-0,0.356l-1.8,-0c-0.622,-0 -0.978,0.444 -0.978,0.866c0,0.423 0.311,0.823 0.978,0.823l1.733,-0c-0.155,1.511 -0.689,2.733 -2.444,3.111c-0.422,0.089 -0.645,0.444 -0.645,0.822c0,0.444 0.311,0.911 0.934,0.911c0.133,0 0.266,-0.022 0.422,-0.067c2.511,-0.755 3.4,-2.4 3.644,-4.777l1.978,-0l0,3.622c0,0.622 0.489,0.933 0.978,0.933c0.489,0 0.978,-0.311 0.978,-0.933l-0,-3.622l1.777,-0Zm-11.488,-6.311c0.4,0.022 0.955,0.044 1.555,0.044c4.489,-0 4.511,-0.511 4.511,-3.244c0,-0.756 -0.022,-1.534 -0.044,-2.289c-0.045,-0.978 -0.911,-1.667 -2.045,-1.711c-0.422,-0.023 -1.333,-0.023 -2.222,-0.023c-2.467,0 -3.822,0.067 -3.822,2.111c-0.045,4.689 -0,12.045 -0.156,16.156l0,0.044c0,0.6 0.534,0.934 1.045,0.934c0.533,-0 1.089,-0.334 1.089,-0.978c0.066,-3.178 0.089,-6.533 0.089,-9.022l-0,-2.022Zm9.488,-4.289c0,-0.223 0.023,-0.445 0.023,-0.645c0.044,-0.666 0.289,-0.689 2.133,-0.689c2.022,0 2.111,0.023 2.111,1.334l-4.267,-0Zm4.312,2.733c-0.312,0.022 -1.067,0.022 -1.8,0.022c-1.978,0 -2.467,0 -2.489,-0.689c-0,-0.2 -0.023,-0.422 -0.023,-0.644l4.312,-0l-0,1.311Zm-13.8,-2.733c-0,-0.178 0.022,-0.334 0.022,-0.489c0.044,-0.8 0.2,-0.845 2.044,-0.845c1.711,0 1.956,0.023 2,0.667c0,0.2 0.022,0.422 0.022,0.667l-4.088,-0Zm4.088,1.422c0,0.222 -0.022,0.444 -0.022,0.644c-0.022,0.6 -0.178,0.689 -2.378,0.689c-0.688,0 -1.355,0 -1.688,-0.022l-0,-1.311l4.088,-0Zm3.667,7.489l-1.911,-0l-0,-2l1.911,-0l0,2Z" style="fill:#fff;fill-rule:nonzero;"/><path d="M240.384,18.406l0,0.6c0,1.778 -0.089,1.889 -0.777,1.933c-0.4,0.022 -1.067,0.045 -1.845,0.045l0,-3.712c0,-0.644 -0.533,-0.955 -1.067,-0.955c-0.533,-0 -1.044,0.289 -1.044,0.911l-0,3.756c-2.356,-0 -2.533,-0.023 -2.578,-0.756l0,-1.844c0,-0.534 -0.466,-0.778 -0.955,-0.778c-0.511,-0 -1.045,0.266 -1.067,0.8c-0,0.333 -0.022,0.733 -0.022,1.111c-0,3.089 0.333,3.089 5.644,3.089c1.289,-0 2.578,-0.022 3.378,-0.045c2.444,-0.089 2.444,-1.555 2.444,-3.311c0,-0.266 0,-0.533 -0.022,-0.822c-0.022,-0.578 -0.555,-0.844 -1.066,-0.844c-0.512,-0 -1.023,0.266 -1.023,0.822Zm2.089,15.222c-1.244,0.022 -2.711,0.022 -4.133,0.022l-0,-1.466l3.044,-0c0.556,-0 0.823,-0.356 0.823,-0.712c-0,-0.355 -0.267,-0.711 -0.823,-0.711l-3.044,0l-0,-1.311l3.044,0c0.556,0 0.823,-0.355 0.823,-0.711c-0,-0.355 -0.267,-0.711 -0.823,-0.711l-3.044,-0l-0,-1.244l3.755,-0c0.556,-0 0.823,-0.4 0.823,-0.778c-0,-0.4 -0.267,-0.8 -0.778,-0.8c-1.133,-0.022 -2.4,-0.022 -3.689,-0.022c0.333,-0.556 0.667,-1.2 0.667,-1.423c-0,-0.489 -0.556,-0.822 -1.089,-0.822c-0.334,0 -0.667,0.133 -0.8,0.489c-0.334,0.822 -0.534,1.289 -0.778,1.756c-0.8,-0 -1.6,0.022 -2.289,0.022c0.645,-1.022 0.689,-1.2 0.689,-1.378c-0,-0.533 -0.556,-0.933 -1.089,-0.933c-0.355,-0 -0.711,0.155 -0.911,0.577c-0.911,1.867 -1.889,3.245 -3.267,4.334c-0.289,0.222 -0.4,0.489 -0.4,0.755c0,0.489 0.445,0.934 1,0.934c0.334,-0 0.534,-0.045 1.311,-0.823c-0.044,1.223 -0.066,2.712 -0.066,3.912c-0,1.288 -0,2.666 2.155,2.711c1.245,0.022 2.823,0.044 4.423,0.044c1.577,0 3.177,-0.022 4.466,-0.044c0.511,-0.023 0.756,-0.445 0.756,-0.867c-0,-0.4 -0.245,-0.8 -0.734,-0.8l-0.022,-0Zm-16.044,1.378c-0,0.666 0.511,0.978 1.044,0.978c0.534,-0 1.067,-0.334 1.089,-1l0.222,-13.6c0.867,-1.467 1.911,-3.489 1.911,-3.889c0,-0.623 -0.622,-1.089 -1.222,-1.089c-0.4,-0 -0.778,0.2 -0.955,0.689c-1.134,3.044 -2.867,5.689 -4.934,7.733c-0.244,0.244 -0.355,0.533 -0.355,0.778c-0,0.533 0.444,0.978 1,0.978c0.644,-0 1.2,-0.534 2.422,-2.089l-0.222,10.489l-0,0.022Zm9.955,-6.978l-2.977,-0c-0,-0.2 0.022,-0.378 0.022,-0.533c0.022,-0.534 0.311,-0.711 0.644,-0.711l2.311,-0l0,1.244Zm0,2.733l-3.022,0c0,-0.444 0.022,-0.889 0.022,-1.311l3,0l0,1.311Zm0,2.889c-0.822,0 -1.577,0 -2.2,-0.022c-0.622,-0.022 -0.822,-0.333 -0.822,-0.778l0,-0.689l3.022,0l0,1.489Z" style="fill:#fff;fill-rule:nonzero;"/><path d="M256.962,21.917c0.956,0.067 1.889,0.333 2.756,0.889c2.2,1.4 2.8,4.311 1.222,6.8c-0.733,1.155 -2.445,2.111 -4.133,2.489c-1.912,0.444 -1.223,2.689 0.733,2.177c2.2,-0.577 4.378,-1.955 5.422,-3.666c1.933,-3.178 1.378,-7.267 -2.067,-9.334c-2.8,-1.688 -6.866,-1.377 -9.6,0.512c-2.977,2.066 -4.466,6.2 -3.066,8.955c0.978,1.911 2.844,2.778 4.555,1.2c2.134,-1.978 4.134,-6.178 4.489,-9c0.067,-0.444 -0.066,-0.8 -0.311,-1.022Zm-1.755,0.111c-0.112,0.178 -0.178,0.422 -0.2,0.689c-0.223,2.4 -1.778,5.933 -3.445,7.4c-0.555,0.489 -1.133,0.155 -1.467,-0.489c-0.933,-1.711 0.178,-4.667 2.245,-6.267c0.844,-0.644 1.844,-1.111 2.867,-1.333Z" style="fill:#fff;fill-rule:nonzero;"/><path d="M281.429,31.85c-0,0.622 0.533,0.934 1.066,0.934c0.534,-0 1.067,-0.312 1.067,-0.934l-0.044,-7.578l3.133,0c0.667,0 1,-0.488 1,-0.955c-0,-0.489 -0.333,-0.978 -1,-0.978l-8.267,0.045c0,-0.556 -0.022,-1.023 -0.022,-1.289c0,-0.4 0.111,-0.734 0.933,-0.867c1.867,-0.289 3.534,-0.578 5.4,-1.111c0.645,-0.178 0.934,-0.645 0.934,-1.089c-0,-0.533 -0.4,-1.067 -1.067,-1.067c-0.155,0 -0.311,0.023 -0.489,0.089c-2.178,0.734 -3.644,1.134 -5.666,1.356c-1.689,0.2 -2.089,1.133 -2.089,2.266l-0,0.089c-0,0.6 0.044,1.4 0.044,2.311c0,2.223 -0.244,5.134 -1.867,7.223c-0.177,0.222 -0.244,0.444 -0.244,0.644c-0,0.556 0.533,1.022 1.111,1.022c1.533,0 2.733,-3.977 2.956,-7.711l3.155,0l-0.044,7.6Zm-8.4,-10.378c0.6,0 1.155,-0.577 1.155,-1.222c0,-1.244 -2.933,-2.733 -3.533,-2.733c-0.622,-0 -1.133,0.533 -1.133,1.044c-0,0.267 0.155,0.534 0.489,0.711c0.688,0.334 1.622,1 2.266,1.8c0.222,0.289 0.489,0.4 0.756,0.4Zm-0.178,11.556c1.756,1.8 3.2,2.733 8.644,2.733c2.023,0 4.045,-0.133 5.445,-0.266c0.778,-0.067 1.111,-0.578 1.111,-1.089c-0,-0.534 -0.378,-1.067 -1.067,-1.067l-0.111,0c-1.689,0.133 -4.089,0.378 -6.311,0.378c-2.844,-0 -5.178,-0.333 -6.689,-2.245c0,-1.422 0.045,-2.955 0.045,-4.244c-0,-1.422 -0.667,-2.044 -2.089,-2.089c-0.734,-0.022 -1.467,-0.022 -2.267,-0.022c-0.6,-0 -0.933,0.511 -0.933,1c-0,0.933 0.778,0.955 1.244,0.955l0.934,0c1.044,0 1.044,0.045 1.044,1.556c-0,0.844 -0.022,1.711 -0.044,2.711c-0.756,0.889 -1.889,1.645 -3.089,2.311c-0.4,0.222 -0.556,0.534 -0.556,0.845c0,0.6 0.578,1.177 1.222,1.177c1.089,0 3.334,-2.488 3.467,-2.644Z" style="fill:#fff;fill-rule:nonzero;"/><path d="M309.295,27.561c-0.222,-1.889 -1.755,-3.977 -3.333,-5.155c-1.333,-1 -2.533,0.644 -1.467,1.378c1.2,0.822 2.112,2.533 2.467,4.311c0.311,1.533 2.511,1.089 2.333,-0.534Zm-9.711,3.667c0.245,-0.4 0.645,-1.089 0.867,-1.711c0.422,-1.156 -1.422,-2.089 -2.022,-0.8c-0.156,0.355 -0.467,0.933 -0.734,1.311c-0.488,0.667 -0.777,0.6 -1.355,0.044c-1.245,-1.2 -1.667,-3.4 -1.756,-5.733c-0.044,-1.022 0.045,-1.067 0,-1.933c-0.066,-1.667 -2.222,-1.378 -2.266,0.022c-0.023,0.8 0.022,1.2 0.111,2.467c0.178,2.8 0.911,5.377 2.511,7.111c1.244,1.333 3.222,1.533 4.644,-0.778Z" style="fill:#fff;fill-rule:nonzero;"/><path d="M324.229,26.85c2.2,0 4.2,0.022 5.422,0.067c1.556,0.044 1.6,-1.978 0.044,-2c-1.044,-0.022 -3.088,-0.045 -5.422,-0.045c0.022,-1.066 0.022,-2.244 0,-3.111c0.956,-0.222 1.889,-0.466 2.689,-0.755c1.222,-0.422 0.8,-2.711 -1.111,-1.911c-1.822,0.755 -5.889,1.6 -8.156,1.444c-1.622,-0.111 -1.688,2 -0.044,2.045c1.178,0.022 2.733,-0.112 4.356,-0.378c-0,0.733 0.022,1.733 0.022,2.666c-2.489,0 -4.956,0.023 -6.6,0.067c-1.467,0.022 -1.334,2.045 -0,2c1.755,-0.044 4.155,-0.089 6.555,-0.089c-0.266,2.111 -1.755,5.467 -5.533,6.422c-1.6,0.4 -1.044,2.845 1.2,2.067c4.578,-1.578 6.4,-5.667 6.578,-8.489Z" style="fill:#fff;fill-rule:nonzero;"/><path d="M348.007,24.206c1.488,-0 2.822,0.044 3.644,0.066c0.733,0.023 1.089,-0.488 1.089,-1c-0,-0.511 -0.356,-1.022 -1.045,-1.044c-1.911,-0.067 -6.422,-0.067 -9.044,-0.022c0.267,-0.645 0.489,-1.311 0.667,-2.022c0.377,-1.467 -1.934,-2 -2.267,-0.534c-0.511,2.311 -2.222,5.4 -3.867,6.645c-1.266,0.955 -0.066,2.933 1.511,1.555c0.956,-0.844 2.023,-2.066 2.934,-3.622c1.066,-0.022 2.533,-0.022 4.044,-0.022c-0.555,3.844 -2.689,7.244 -6.489,8.311c-1.577,0.444 -1.222,2.911 0.867,2.178c4.822,-1.711 7.311,-5.778 7.956,-10.489Z" style="fill:#fff;fill-rule:nonzero;"/><path d="M368.007,26.939c-0.334,-0.778 -0.823,-1.578 -1.334,-2.2c-0.911,-1.089 -2.4,0.133 -1.6,1.022c0.422,0.489 0.822,1.2 1.045,1.867c0.466,1.422 2.422,0.622 1.889,-0.689Zm-3.778,8.356c4.378,-1.978 6.844,-5.378 8.111,-9.578c0.422,-1.356 -1.733,-2.022 -2.089,-0.578c-0.889,3.711 -3.289,6.845 -7,8.4c-0.622,0.267 -0.756,0.867 -0.556,1.333c0.223,0.489 0.778,0.756 1.534,0.423Zm0.711,-7.423c-0.422,-0.733 -1.045,-1.444 -1.645,-1.977c-1.044,-0.934 -2.333,0.466 -1.422,1.244c0.489,0.422 0.956,1.089 1.267,1.711c0.667,1.311 2.511,0.222 1.8,-0.978Z" style="fill:#fff;fill-rule:nonzero;"/><path d="M388.695,26.05c1.178,0.222 3.378,1.089 4.334,1.8c1.266,0.934 2.533,-1 1.378,-1.978c-1.2,-1.022 -4.089,-1.733 -5.334,-1.933c-0.133,-0.022 -0.266,-0.022 -0.378,-0.022c0.023,-2.178 0.045,-4.111 0.067,-5.2c0.045,-1.511 -2.355,-1.533 -2.311,-0.022c0.089,3.2 0.022,11.911 -0.133,15.511c-0.089,1.778 2.444,1.711 2.4,-0.089c-0.045,-1.8 -0.045,-5 -0.023,-8.067Z" style="fill:#fff;fill-rule:nonzero;"/><path d="M420.895,20.006c0.8,0.8 1.978,-0.645 1.045,-1.489c-0.533,-0.467 -1.733,-1 -2.333,-1.156c-1.067,-0.289 -1.778,1.134 -0.623,1.511c0.467,0.156 1.6,0.823 1.911,1.134Zm-1.933,2.066c0.778,0.823 1.978,-0.577 1.067,-1.444c-0.511,-0.489 -1.667,-1.067 -2.267,-1.244c-1.044,-0.334 -1.844,1.044 -0.689,1.466c0.445,0.156 1.578,0.889 1.889,1.222Zm2.178,4.556c-0.6,-1.6 -2.178,-3.178 -3.956,-4.222c-1.377,-0.8 -2.355,0.866 -1.266,1.466c1.644,0.912 2.644,2.6 3.177,3.823c0.6,1.377 2.6,0.4 2.045,-1.067Zm-10.956,-3.867c0.267,-1.044 0.556,-2.377 0.645,-3.133c0.178,-1.489 -2.089,-1.622 -2.245,-0.178c-0.133,1.245 -0.422,2.556 -0.689,3.534l-1.111,0.111c-0.8,0.066 -1.489,0.044 -2.177,0.111c-1.423,0.133 -1.445,2.133 0.066,2.133c0.578,0 1.445,-0.133 2.4,-0.311l0.267,-0.044c-1.022,2.977 -2.4,5.511 -3.933,7.222c-1.445,1.622 0.866,2.911 1.933,1.4c1.733,-2.467 3.222,-5.489 4.311,-8.934c0.356,-0.044 0.689,-0.088 1.022,-0.111c1.022,-0.089 1.489,0.556 1.489,1.911c0,1.178 -0.2,2.756 -0.711,3.845c-0.622,1.311 -1.556,1.511 -2.822,1.2c-1.356,-0.333 -2.067,1.711 -0.311,2.222c2.133,0.622 4.311,-0.467 5.222,-2.667c0.578,-1.4 0.8,-3.4 0.755,-4.955c-0.088,-2.489 -1.511,-3.578 -3.377,-3.422l-0.734,0.066Z" style="fill:#fff;fill-rule:nonzero;"/><path d="M433.073,24.117c-0.689,-0 -1.155,0.578 -1.155,1.155c-0,0.578 0.489,1.178 1.177,1.178c0.089,0 0.2,-0.022 0.334,-0.022l0.2,-0c1.578,-0 2.933,0.689 2.933,2.956c0,1.844 -1.6,3.022 -3.2,3.022c-1.533,-0 -2.244,-0.422 -3.244,-1.534c-0.267,-0.288 -0.578,-0.422 -0.867,-0.422c-0.667,0 -1.311,0.622 -1.311,1.334c-0,1.044 2,3 5.311,3c3.356,-0 5.756,-2.223 5.756,-5.356c-0,-0.422 -0.045,-3.089 -2.645,-4.289c1.089,-0.578 1.8,-1.755 1.8,-3.267c0,-2.488 -1.8,-4.288 -4.622,-4.288c-1.933,-0 -4.489,1.288 -4.489,2.533c-0,0.667 0.622,1.244 1.244,1.244c0.267,0 0.556,-0.111 0.778,-0.333c0.578,-0.6 1.289,-1.156 2.356,-1.156c1.178,0 2.311,0.734 2.311,2c-0,1.312 -0.667,2.2 -2,2.245l-0.667,-0Z" style="fill:#fff;fill-rule:nonzero;"/><path d="M464.962,28.584c0.667,-0 1,-0.467 1,-0.956c0,-0.489 -0.333,-0.978 -1,-0.978l-4.711,0l-0,-4.022l3.511,-0c0.711,-0 1.067,-0.489 1.067,-0.956c-0,-0.488 -0.356,-0.977 -1.067,-0.977l-3.511,-0l-0,-3.134c-0,-0.689 -0.533,-1.022 -1.067,-1.022c-0.555,0 -1.089,0.333 -1.089,1.022l0,3.156l-1.644,-0c0.067,-0.2 0.511,-1.711 0.511,-2.022c0,-0.6 -0.578,-0.978 -1.155,-0.978c-0.445,-0 -0.889,0.244 -0.978,0.867c-0.4,2.6 -1.489,4.622 -2.667,6.066c-0.155,0.2 -0.244,0.4 -0.244,0.6c-0,0.511 0.511,0.934 1.089,0.934c0.377,-0 1.2,-0.045 2.733,-3.556l2.355,-0l0,4.022l-4.888,0c-0.667,0 -1,0.489 -1,0.978c-0,0.467 0.333,0.956 1,0.956l4.888,-0l0,6.244c0,0.689 0.534,1.022 1.089,1.022c0.534,0 1.067,-0.333 1.067,-1.022l-0,-6.244l4.711,-0Zm-15.933,6.4l-0,0.044c-0,0.644 0.533,0.956 1.089,0.956c0.555,-0 1.111,-0.334 1.133,-1l0.267,-13.467c0.6,-0.956 1.911,-3.267 1.911,-3.822c-0,-0.645 -0.645,-1.089 -1.245,-1.089c-0.4,-0 -0.8,0.2 -1,0.711c-1.133,3.044 -3.022,5.733 -5.155,7.711c-0.267,0.244 -0.378,0.533 -0.378,0.8c-0,0.533 0.467,1 1.044,1c0.734,-0 1.267,-0.644 2.623,-2.244l-0.289,10.4Z" style="fill:#fff;fill-rule:nonzero;"/><path d="M476.007,32.406c0.844,1.578 2.688,0.155 1.911,-1.134c-0.089,-0.133 -0.178,-0.288 -0.245,-0.444c1.667,-1.556 3.111,-3.444 3.845,-5.533c4.022,1 3.8,6.244 -1.734,8.044c-1.822,0.6 -1.266,2.667 0.734,2c7.577,-2.489 7.911,-10.667 1.422,-11.844c0.089,-1.067 -1.956,-1.489 -2.111,-0.178l-0,0.044l-0.267,0c-0.755,0.045 -1.555,0.223 -2.333,0.489c0.089,-0.622 0.178,-1.266 0.289,-1.978c1.289,-0.222 2.622,-0.577 3.844,-0.977c1.756,-0.578 0.778,-2.467 -0.511,-1.978c-0.956,0.355 -1.978,0.644 -3,0.867c0.089,-0.512 0.2,-1.067 0.289,-1.623c0.244,-1.333 -1.911,-1.689 -2.156,-0.044c-0.089,0.667 -0.2,1.333 -0.289,1.978c-0.933,0.066 -1.777,0.022 -2.4,-0.178c-1.488,-0.467 -1.933,1.578 -0.622,1.955c0.756,0.223 1.711,0.289 2.778,0.223c-0.111,0.911 -0.2,1.8 -0.267,2.644c-0.333,0.178 -0.644,0.356 -0.933,0.533c-2.022,1.289 -3.8,3.712 -3.978,5.889c-0.244,2.978 1.867,3.334 3.245,2.623c0.777,-0.4 1.6,-0.912 2.422,-1.512l0.067,0.134Zm3.377,-7.245c-0.489,1.356 -1.311,2.578 -2.311,3.623c-0.111,-0.889 -0.133,-1.889 -0.044,-3.023c0.8,-0.311 1.644,-0.533 2.289,-0.6l0.066,0Zm-4.066,5.2c-0.645,0.489 -1.311,0.911 -1.978,1.289c-0.578,0.311 -1.178,0.222 -1.111,-0.666c0.089,-1.312 1.089,-2.889 2.844,-4.178c-0.022,1.311 0.045,2.511 0.245,3.555Z" style="fill:#fff;fill-rule:nonzero;"/><path d="M500.184,35.539c5.223,-3.844 6.023,-9.689 4.4,-14.178c-0.911,-2.511 -3.8,-3.422 -5.422,-1.333c-0.222,0.289 -0.444,0.578 -0.155,-0.022c0.244,-0.534 0.511,-1.311 0.577,-2.067c0.111,-1.333 -2.044,-1.6 -2.222,-0.2c-0.178,1.356 -0.6,2.822 -0.844,3.956c-0.267,1.244 -0.645,3.377 -0.511,5.133c0.133,1.6 2.533,1.622 2.422,-0.533c-0.111,-1.934 -0.067,-2.845 0.578,-4.2c0.644,-1.378 2.755,-2.2 3.488,0.022c1.534,4.644 -0.422,9.444 -3.866,11.689c-1.867,1.222 -0.245,3.066 1.555,1.733Z" style="fill:#fff;fill-rule:nonzero;"/><path d="M522.495,22.539c0.023,0.867 0.067,1.733 0.112,2.578c-1.712,0.333 -2.823,0.333 -3.467,0.2c-1.778,-0.378 -2.045,1.911 -0.467,2.133c1.111,0.156 2.289,0.089 4.045,-0.244c0.044,0.689 0.089,1.311 0.133,1.844c0.044,0.511 0.089,0.978 0.111,1.445c-1.4,-0.245 -2.889,-0.2 -4.244,0.377c-2.423,1.023 -2.289,3.512 -0.178,4.556c2.733,1.356 5.444,-0.133 6.222,-2.022c0.6,0.355 1.156,0.778 1.622,1.2c1.4,1.289 2.845,-0.734 1.356,-1.956c-0.689,-0.555 -1.645,-1.155 -2.756,-1.578c-0.044,-0.8 -0.111,-1.6 -0.177,-2.2c-0.067,-0.644 -0.112,-1.333 -0.156,-2.088c0.644,-0.156 1.356,-0.356 2.133,-0.578c1.978,-0.556 1.134,-2.6 -0.511,-2.067c-0.6,0.2 -1.155,0.356 -1.689,0.511c-0.022,-0.822 -0.022,-1.644 -0.022,-2.466c0.511,-0.089 1.067,-0.2 1.667,-0.289c1.933,-0.311 1.333,-2.378 -0.134,-2.045c-0.533,0.111 -1.044,0.245 -1.511,0.334c0.023,-0.889 0.067,-1.778 0.134,-2.578c0.089,-1.289 -2.223,-1.689 -2.267,0.022c-0.022,0.711 -0.022,1.756 -0,2.933c-1.511,0.223 -2.533,0.267 -3.444,0.156c-2.023,-0.245 -1.934,2.067 -0.223,2.111c1.223,0.022 2.334,-0.089 3.489,-0.267l0.222,-0.022Zm0.267,9.956c-0.333,1.244 -2.067,1.911 -3.422,1.244c-0.622,-0.311 -0.511,-1.022 0.067,-1.267c0.977,-0.422 2.155,-0.355 3.355,0.023Z" style="fill:#fff;fill-rule:nonzero;"/><path d="M545.895,30.539c-0.533,1.267 -1.466,2.511 -2.533,3.267c-1.933,1.378 0,2.955 1.489,1.778c2.356,-1.889 4.711,-6.6 2.733,-9.712c-0.022,-0.488 -0.066,-0.955 -0.066,-1.266c-0,-0.645 -0.023,-1.334 -0.045,-2.045c0.578,-0.022 1.111,-0.044 1.622,-0.044c1.378,0.022 1.912,0.022 3.489,0.155c1.778,0.134 1.867,-2.222 0,-2.266c-1.511,-0.022 -2.289,-0 -3.377,-0c-0.489,-0 -1.067,0.022 -1.712,0.066c0,-0.111 0.023,-0.222 0.023,-0.333c0.044,-0.6 0.111,-1.622 0.089,-2.133c-0.089,-1.4 -2.334,-1.556 -2.334,0.066c0,0.712 0.134,0.8 0.111,2.178l0,0.4c-1.955,0.178 -3.955,0.422 -5.066,0.6c-0.934,0.156 -2.378,0.311 -3.267,0.467c-1.756,0.289 -1.311,2.511 0.178,2.244c0.666,-0.111 1.711,-0.4 3.311,-0.644c1.155,-0.178 3,-0.445 4.867,-0.622c0.022,0.644 0.044,1.311 0.066,1.8c-0.6,-0.089 -1.266,-0 -1.911,0.2c-1.355,0.422 -2.555,2.022 -1.778,4.177c0.711,2 2.645,2.423 4.111,1.667Zm-0.022,-3.622c0.134,0.178 0.2,0.378 0.134,0.844c-0.223,1.578 -2.156,1.578 -2.556,0.378c-0.244,-0.755 0.111,-1.444 0.644,-1.689c0.467,-0.222 1.112,-0.178 1.423,0.089c0.133,0.111 0.244,0.245 0.355,0.378Z" style="fill:#fff;fill-rule:nonzero;"/><path d="M566.051,29.561c-0,0.689 0.467,1.045 0.933,1.045c0.978,-0 0.978,-0.934 0.978,-1.467c0,-2.155 0.356,-8.267 0.356,-10.889c-0,-0.866 -0.667,-1.289 -1.334,-1.289c-0.644,0 -1.289,0.4 -1.289,1.223l0,0.066c0.134,3.489 0.356,8.667 0.356,10.822l-0,0.489Zm2.489,4.156c-0,-1 -0.667,-1.533 -1.533,-1.533c-0.6,-0 -1.534,0.555 -1.534,1.533c0,0.755 0.689,1.467 1.534,1.467c0.6,-0 1.533,-0.4 1.533,-1.467Z" style="fill:#fff;fill-rule:nonzero;"/><path d="M598.007,27.428c0.622,-0.511 0.866,-1.067 0.866,-1.578c0,-0.6 -0.333,-1.155 -0.822,-1.511c-0.911,-0.644 -3.356,-2.178 -4.2,-2.667c-0.133,-0.088 -0.267,-0.111 -0.378,-0.111c-0.378,0 -0.644,0.356 -0.644,0.711c-0,0.2 0.089,0.4 0.311,0.512c0.844,0.466 3.067,1.822 3.955,2.288c0.112,0.045 0.178,0.112 0.178,0.156c0,0.067 -0.111,0.111 -0.355,0.111c-13.023,0 -15.089,0 -16.889,-0.022c-0.356,-0 -0.556,0.311 -0.556,0.6c0,0.311 0.2,0.622 0.556,0.622c2.578,-0.022 8.289,-0.022 12.578,-0.022l4.288,-0c0.2,-0 0.334,-0 0.334,0.067c-0,0.155 -3,1.888 -3.978,2.311c-0.289,0.133 -0.4,0.333 -0.4,0.555c-0,0.378 0.333,0.756 0.711,0.756c0.533,-0 3.445,-1.978 4.445,-2.778Z" style="fill:#fff;fill-rule:nonzero;"/></g><defs><linearGradient id="_Linear1" x1="0" y1="0" x2="1" y2="0" gradientUnits="userSpaceOnUse" gradientTransform="matrix(745.799,0,0,745.799,1.90019,25.2548)"><stop offset="0" style="stop-color:#ff54af;stop-opacity:1"/><stop offset="0.5" style="stop-color:#ff5a55;stop-opacity:1"/><stop offset="1" style="stop-color:#ff9a0b;stop-opacity:1"/></linearGradient></defs></svg>